name C:\Users\r0593348\3dpredictsim\Results\batch_windlass\Pog_s1_tmt_bCst_d05_k800_WL40_ig24_pas.mot
datacolumns 128
datarows 4
range 0.00000000 0.03218364
endheader
time	pelvis_tilt	pelvis_list	pelvis_rotation	pelvis_tx	pelvis_ty	pelvis_tz	hip_flexion_l	hip_adduction_l	hip_rotation_l	hip_flexion_r	hip_adduction_r	hip_rotation_r	knee_angle_l	knee_angle_r	ankle_angle_l	ankle_angle_r	subtalar_angle_l	subtalar_angle_r	tmt_angle_l	tmt_angle_r	mtp_angle_l	mtp_angle_r	lumbar_extension	lumbar_bending	lumbar_rotation	arm_flex_l	arm_add_l	arm_rot_l	arm_flex_r	arm_add_r	arm_rot_r	elbow_flex_l	elbow_flex_r	pro_sup_l	pro_sup_r	glut_med1_l/activation	glut_med2_l/activation	glut_med3_l/activation	glut_min1_l/activation	glut_min2_l/activation	glut_min3_l/activation	semimem_l/activation	semiten_l/activation	bifemlh_l/activation	bifemsh_l/activation	sar_l/activation	add_long_l/activation	add_brev_l/activation	add_mag1_l/activation	add_mag2_l/activation	add_mag3_l/activation	tfl_l/activation	pect_l/activation	grac_l/activation	glut_max1_l/activation	glut_max2_l/activation	glut_max3_l/activation	iliacus_l/activation	psoas_l/activation	quad_fem_l/activation	gem_l/activation	peri_l/activation	rect_fem_l/activation	vas_med_l/activation	vas_int_l/activation	vas_lat_l/activation	med_gas_l/activation	lat_gas_l/activation	soleus_l/activation	tib_post_l/activation	flex_dig_l/activation	flex_hal_l/activation	tib_ant_l/activation	per_brev_l/activation	per_long_l/activation	per_tert_l/activation	ext_dig_l/activation	ext_hal_l/activation	ercspn_l/activation	intobl_l/activation	extobl_l/activation	glut_med1_r/activation	glut_med2_r/activation	glut_med3_r/activation	glut_min1_r/activation	glut_min2_r/activation	glut_min3_r/activation	semimem_r/activation	semiten_r/activation	bifemlh_r/activation	bifemsh_r/activation	sar_r/activation	add_long_r/activation	add_brev_r/activation	add_mag1_r/activation	add_mag2_r/activation	add_mag3_r/activation	tfl_r/activation	pect_r/activation	grac_r/activation	glut_max1_r/activation	glut_max2_r/activation	glut_max3_r/activation	iliacus_r/activation	psoas_r/activation	quad_fem_r/activation	gem_r/activation	peri_r/activation	rect_fem_r/activation	vas_med_r/activation	vas_int_r/activation	vas_lat_r/activation	med_gas_r/activation	lat_gas_r/activation	soleus_r/activation	tib_post_r/activation	flex_dig_r/activation	flex_hal_r/activation	tib_ant_r/activation	per_brev_r/activation	per_long_r/activation	per_tert_r/activation	ext_dig_r/activation	ext_hal_r/activation	ercspn_r/activation	intobl_r/activation	extobl_r/activation	
          0.00000000	         -2.92157255	         -1.37712990	          6.26516684	          0.00000000	          0.85960987	         -0.00162184	        -17.96791012	         -1.78652593	          9.26228269	         31.92933169	          1.76871801	         -2.12624890	         -9.12759697	        -21.67966142	          0.21752523	         -2.54789222	         13.80668694	          0.40633098	        -12.70849990	          0.25216019	         31.47294708	         -0.78582087	         -0.49705198	         -0.66108204	         -1.92408698	          6.03037443	        -13.46349711	         15.32394567	        -12.89382930	        -13.89217746	          7.28516170	         36.69814410	         19.78101520	         86.51662706	         86.51662706	          0.35024139	          0.09654541	          0.05000009	          0.37118341	          0.22887782	          0.09657936	          0.05000260	          0.05000033	          0.05000027	          0.07945680	          0.09519606	          0.06041539	          0.05000044	          0.05000058	          0.05000131	          0.05000151	          0.30094245	          0.05000237	          0.05000056	          0.05000179	          0.05000121	          0.05000082	          0.28604496	          0.48594898	          0.05000012	          0.05000067	          0.05000028	          0.20999803	          0.05006755	          0.06976417	          0.05163509	          0.29713546	          0.37273670	          0.21714044	          0.19292527	          0.21036854	          0.26209771	          0.05000001	          0.21402179	          0.22864292	          0.05000011	          0.05000005	          0.05000014	          0.05000001	          0.05582156	          0.05000067	          0.05414125	          0.05000339	          0.05271674	          0.05000149	          0.05000221	          0.05000189	          0.06108057	          0.05000357	          0.06662066	          0.05000014	          0.05000074	          0.08970843	          0.10936284	          0.15824790	          0.11322733	          0.10208761	          0.05000511	          0.05000475	          0.06677972	          0.05730503	          0.07445985	          0.08547346	          0.07820352	          0.08124700	          0.17132270	          0.05000161	          0.05000106	          0.05110857	          0.07938551	          0.08481377	          0.06737274	          0.09434132	          0.09654401	          0.07026696	          0.05218332	          0.05000374	          0.05895625	          0.37995554	          0.25904144	          0.15814098	          0.05000019	          0.62031255	          0.05000012	          0.05000003	          0.11577462	          0.15596935	
          0.01072788	         -2.90950427	         -1.51892732	          6.52902991	          0.01649874	          0.85883015	         -0.00138229	        -17.64930168	         -2.10837796	          8.99095439	         31.43252283	          2.18830182	         -1.90938786	        -11.20451982	        -20.93169774	         -0.94260052	         -2.91316450	         14.75953900	         -0.19430240	        -13.29217072	          0.39600872	         32.30884980	         -0.71470483	         -0.28298225	         -0.36062746	         -2.01336251	          5.80625282	        -13.48737777	         15.68752143	        -14.00899539	        -13.87666200	          7.10213904	         37.66397325	         19.79492304	         86.51662706	         86.51662706	          0.29711751	          0.08190160	          0.05000012	          0.31488311	          0.19416211	          0.08193043	          0.05000407	          0.05000040	          0.05000029	          0.06740496	          0.08075719	          0.13923570	          0.07253762	          0.05000161	          0.05000298	          0.05000360	          0.26164074	          0.06412843	          0.05000088	          0.05000259	          0.05000182	          0.05000134	          0.24265837	          0.45622028	          0.05000019	          0.05000087	          0.05000020	          0.17814604	          0.12444972	          0.05918347	          0.12877813	          0.25206648	          0.31620067	          0.18420497	          0.16366274	          0.17846034	          0.22234329	          0.08458065	          0.20018269	          0.19396302	          0.05000042	          0.14702941	          0.05000057	          0.05000001	          0.05422506	          0.05000013	          0.10824792	          0.05000206	          0.05000021	          0.05000074	          0.05000080	          0.05000190	          0.06947686	          0.06947790	          0.06947842	          0.05894227	          0.05000121	          0.07610271	          0.09318266	          0.13424897	          0.09605452	          0.12261866	          0.05000105	          0.05000632	          0.09585409	          0.05893978	          0.10895405	          0.09503925	          0.06634181	          0.06892368	          0.24930249	          0.05894193	          0.05000058	          0.05000015	          0.11824927	          0.13123392	          0.10281410	          0.08003183	          0.08190043	          0.06665320	          0.05000005	          0.05893624	          0.05001431	          0.40068051	          0.21975192	          0.13415533	          0.33307032	          0.58631285	          0.16366311	          0.05000007	          0.09821414	          0.13231221	
          0.02145576	         -2.89175977	         -1.65239731	          6.76910087	          0.03323422	          0.85768599	         -0.00114250	        -17.25564192	         -2.40305417	          8.70105833	         30.84932747	          2.61856120	         -1.63611433	        -13.47658421	        -20.58379468	         -2.07878710	         -3.09121242	         15.62038960	         -0.90076043	        -13.58282413	          0.28984682	         32.39816223	         -0.46365773	         -0.05604969	         -0.06044191	         -2.09331575	          5.51619689	        -13.53064621	         15.99200435	        -15.08693859	        -13.86122986	          6.99682839	         38.61488757	         19.71696026	         86.51662706	         86.51662706	          0.25205133	          0.06947895	          0.05000004	          0.26712230	          0.16471202	          0.06950345	          0.05000107	          0.05000014	          0.05000015	          0.05718115	          0.06850852	          0.17770877	          0.31451248	          0.06743730	          0.05000224	          0.05000047	          0.23185142	          0.11796337	          0.05000064	          0.05000075	          0.05000047	          0.05000031	          0.20585244	          0.39690195	          0.05000008	          0.05000037	          0.05000021	          0.15112523	          0.10573406	          0.05020783	          0.10936892	          0.21383349	          0.26823993	          0.15626509	          0.13883873	          0.15139195	          0.18861879	          0.20150792	          0.16981953	          0.16454311	          0.11384712	          0.24585653	          0.16555925	          0.05091257	          0.05000005	          0.05000020	          0.18315130	          0.05000030	          0.26046794	          0.05894001	          0.05893865	          0.05000129	          0.05893991	          0.05893969	          0.05894020	          0.05000208	          0.05893853	          0.09654438	          0.23291152	          0.18595209	          0.22643499	          0.16987277	          0.05000023	          0.08189833	          0.08131536	          0.05000027	          0.09242849	          0.17599316	          0.05893996	          0.05846950	          0.21148895	          0.05000238	          0.05894039	          0.05000058	          0.22675795	          0.22629874	          0.18763000	          0.06789275	          0.06947792	          0.05654336	          0.05000004	          0.05000015	          0.05000025	          0.62398912	          0.18642035	          0.11380689	          0.51594349	          0.67630153	          0.39578690	          0.05000016	          0.08331721	          0.11224333	
          0.03218364	         -2.86878254	         -1.79191847	          6.97992522	          0.05007080	          0.85613688	         -0.00092068	        -16.73847271	         -2.67344161	          8.41315105	         30.16634879	          3.06102348	         -1.26501233	        -16.05200542	        -20.87336249	         -3.05076317	         -3.22746148	         16.38847231	         -1.67135085	        -13.33149351	          0.09709128	         31.25998423	         -0.08204991	          0.17295145	          0.25752516	         -2.15976058	          5.17480619	        -13.58912535	         16.23692808	        -16.10187421	        -13.85980509	          6.99890984	         39.56355955	         19.53576296	         86.51662706	         86.51662706	          0.21382067	          0.05894093	          0.05894218	          0.22660573	          0.13972888	          0.05896158	          0.06743584	          0.05413338	          0.05894012	          0.05000014	          0.05811750	          0.23484221	          0.36666956	          0.24890036	          0.12866403	          0.11380544	          0.24530259	          0.10007132	          0.05894205	          0.05894282	          0.05894382	          0.06109351	          0.17462915	          0.36027179	          0.09461789	          0.06043600	          0.05894001	          0.12820294	          0.08969697	          0.11009254	          0.09278033	          0.18139961	          0.22755379	          0.13256308	          0.13506639	          0.12842948	          0.16001144	          0.23976771	          0.14406165	          0.13958554	          0.13248461	          0.25067635	          0.14044767	          0.08720856	          0.05894008	          0.05000022	          0.32472040	          0.16162929	          0.28337593	          0.05000029	          0.05000021	          0.05000040	          0.05000007	          0.05000014	          0.05000029	          0.05000003	          0.05000012	          0.08190081	          0.19758415	          0.30993217	          0.28198198	          0.17966504	          0.05000071	          0.06947743	          0.06898224	          0.18590187	          0.18102839	          0.17963707	          0.05000013	          0.05000013	          0.29982536	          0.05000126	          0.05000065	          0.05894007	          0.37006583	          0.35296033	          0.29668508	          0.05893990	          0.05893992	          0.05000007	          0.13963513	          0.05000996	          0.05000073	          0.52934358	          0.15814447	          0.09654488	          0.43768619	          0.57372135	          0.33575470	          0.05000001	          0.07067981	          0.09521847	
